<svg width="13" height="8" viewBox="0 0 13 8" fill="none" xmlns="http://www.w3.org/2000/svg">
<path d="M6.09502 0.66532L0.154493 6.60553C0.0553226 6.70465 0 6.83633 0 6.97326C0 7.1102 0.0553226 7.24188 0.154493 7.341L0.161206 7.34739C0.209282 7.39561 0.26715 7.434 0.331291 7.46024C0.395432 7.48647 0.464504 7.5 0.534306 7.5C0.604108 7.5 0.67318 7.48647 0.737321 7.46024C0.801462 7.434 0.859331 7.39561 0.907407 7.34739L6.50112 1.75359L12.0926 7.34739C12.1407 7.39561 12.1985 7.434 12.2627 7.46024C12.3268 7.48647 12.3959 7.5 12.4657 7.5C12.5355 7.5 12.6046 7.48647 12.6687 7.46024C12.7328 7.434 12.7907 7.39561 12.8388 7.34739L12.8455 7.341C12.9447 7.24188 13 7.1102 13 6.97326C13 6.83633 12.9447 6.70465 12.8455 6.60553L6.90498 0.66532C6.85274 0.613078 6.78991 0.571488 6.7203 0.543071C6.65068 0.514653 6.57573 0.5 6.5 0.5C6.42426 0.5 6.34932 0.514653 6.2797 0.543071C6.21009 0.571488 6.14726 0.613078 6.09502 0.66532Z" fill="#3341F1"/>
</svg>
