<svg width="50" height="50" viewBox="0 0 50 50" fill="none" xmlns="http://www.w3.org/2000/svg">
<path d="M24.9875 4.1665C20.867 4.1665 16.8391 5.38836 13.4131 7.67755C9.98708 9.96675 7.31682 13.2205 5.74 17.0273C4.16317 20.8341 3.7506 25.0229 4.55446 29.0642C5.35832 33.1055 7.3425 36.8176 10.2561 39.7312C13.1697 42.6448 16.8818 44.629 20.9231 45.4329C24.9644 46.2367 29.1533 45.8242 32.9601 44.2473C36.7669 42.6705 40.0206 40.0002 42.3098 36.5742C44.599 33.1482 45.8208 29.1203 45.8208 24.9998C45.8208 22.264 45.282 19.5549 44.235 17.0273C43.188 14.4996 41.6534 12.203 39.7189 10.2684C37.7843 8.33389 35.4877 6.79932 32.9601 5.75235C30.4324 4.70537 27.7234 4.1665 24.9875 4.1665ZM31.6125 35.7332C31.5347 35.9278 31.4162 36.1035 31.2649 36.2486C31.1137 36.3936 30.9331 36.5046 30.7353 36.5741C30.5376 36.6435 30.3273 36.6699 30.1185 36.6513C29.9098 36.6328 29.7074 36.5697 29.525 36.4665L23.8687 32.0707L20.2396 35.4207C20.1553 35.4829 20.0568 35.5229 19.9531 35.5371C19.8493 35.5513 19.7437 35.5392 19.6458 35.5019L20.3417 29.2748L20.3625 29.2936L20.3771 29.1707C20.3771 29.1707 30.5542 19.904 30.9687 19.5103C31.3896 19.1165 31.25 19.0311 31.25 19.0311C31.275 18.5519 30.4979 19.0311 30.4979 19.0311L17.0125 27.7061L11.3979 25.7936C11.3979 25.7936 10.5354 25.4853 10.4542 24.804C10.3687 24.129 11.425 23.7623 11.425 23.7623L33.7521 14.8915C33.7521 14.8915 35.5875 14.0748 35.5875 15.429L31.6125 35.7332Z" fill="#F1F6FF"/>
</svg>
