<svg width="50" height="50" viewBox="0 0 50 50" fill="none" xmlns="http://www.w3.org/2000/svg">
<path d="M31.4021 4.1665H18.6187C6.94374 4.1665 4.16666 6.94359 4.16666 18.5978V31.3811C4.16666 43.054 6.92291 45.8332 18.5979 45.8332H31.3812C43.0542 45.8332 45.8333 43.0769 45.8333 31.4019V18.6186C45.8333 6.94359 43.0771 4.1665 31.4021 4.1665ZM37.8042 33.8957H34.7646C33.6146 33.8957 33.2687 32.9644 31.2062 30.9019C29.4062 29.1665 28.6458 28.9498 28.1896 28.9498C27.5604 28.9498 27.3875 29.1228 27.3875 29.9915V32.7248C27.3875 33.4644 27.1479 33.8978 25.2167 33.8978C23.3424 33.7718 21.5248 33.2024 19.9137 32.2364C18.3026 31.2704 16.9441 29.9354 15.95 28.3415C13.5899 25.404 11.9478 21.9564 11.1542 18.2728C11.1542 17.8165 11.3271 17.404 12.1958 17.404H15.2333C16.0146 17.404 16.2958 17.7519 16.6021 18.554C18.0771 22.8957 20.5937 26.6707 21.6146 26.6707C22.0062 26.6707 22.1771 26.4978 22.1771 25.5207V21.0498C22.0479 19.0103 20.9646 18.8373 20.9646 18.0998C20.9785 17.9053 21.0676 17.7239 21.2131 17.594C21.3585 17.4641 21.5489 17.3959 21.7437 17.404H26.5187C27.1708 17.404 27.3875 17.729 27.3875 18.5103V24.5436C27.3875 25.1957 27.6687 25.4123 27.8646 25.4123C28.2562 25.4123 28.5583 25.1957 29.275 24.479C30.8143 22.6018 32.0719 20.5104 33.0083 18.2707C33.104 18.0016 33.2851 17.7713 33.524 17.6148C33.7629 17.4583 34.0464 17.3843 34.3312 17.404H37.3708C38.2812 17.404 38.475 17.8603 38.2812 18.5103C37.176 20.9862 35.8085 23.3364 34.2021 25.5207C33.875 26.0207 33.7437 26.2811 34.2021 26.8665C34.5042 27.3228 35.5687 28.2123 36.2854 29.0582C37.3269 30.097 38.1917 31.2989 38.8458 32.6165C39.1062 33.4623 38.6708 33.8957 37.8042 33.8957Z" fill="#F1F6FF"/>
</svg>
